<svg width="10" height="13" viewBox="0 0 10 13" fill="none" xmlns="http://www.w3.org/2000/svg">
<path d="M9.33325 9.08638C9.33325 10.3168 8.43697 12.1617 6.82463 12.9848C6.69121 13.0528 6.55845 12.8783 6.6448 12.7479C6.99958 12.211 7.17109 11.5194 7.17109 10.9077C7.17109 9.7462 6.61914 9.24975 6.61914 9.24975C6.47448 9.74981 6.25576 10.1671 5.96974 10.507C5.6939 10.8343 5.20754 10.4832 5.35234 10.0732C5.98997 8.27028 6.01853 7.63068 4.83742 6.85126C5.33039 8.90626 3.01523 9.15239 3.01523 11.4736C3.01523 11.8272 3.13278 12.3082 3.37398 12.7285C3.45372 12.8672 3.31143 13.0297 3.17893 12.9529C1.49678 11.9789 0.333252 9.77134 0.333252 7.97055C0.333252 5.72474 2.33554 3.84481 2.40444 3.78212C2.40616 3.78024 2.40616 3.78024 2.40616 3.78024C2.47994 4.65586 2.82322 5.31207 3.33457 5.83293C3.44327 5.94357 3.6124 5.81199 3.54681 5.66639C3.29543 5.10782 3.03189 4.22744 3.1632 3.14989C3.16492 3.14238 3.16492 3.13328 3.16664 3.12591C3.29966 1.8379 4.10894 0.847308 5.3928 0C4.42366 4.03966 9.33325 4.52499 9.33325 9.08638Z" fill="#7B7B7B"/>
</svg>
