<svg width="19" height="19" viewBox="0 0 19 19" fill="none" xmlns="http://www.w3.org/2000/svg">
<path d="M18.6026 4.89725C18.4952 4.49293 18.2836 4.1239 17.9887 3.82712C17.6939 3.53035 17.3263 3.31624 16.9227 3.20625C15.4415 2.80646 9.5 2.80646 9.5 2.80646C9.5 2.80646 3.55854 2.80646 2.07654 3.20625C1.67311 3.31644 1.30569 3.53062 1.01102 3.82738C0.716349 4.12413 0.50476 4.49306 0.397417 4.89725C0 6.38875 0 9.5 0 9.5C0 9.5 0 12.6112 0.397417 14.1027C0.504756 14.5071 0.716439 14.8761 1.01127 15.1729C1.3061 15.4696 1.67372 15.6838 2.07733 15.7937C3.55854 16.1935 9.5 16.1935 9.5 16.1935C9.5 16.1935 15.4415 16.1935 16.9235 15.7937C17.3271 15.6838 17.6948 15.4697 17.9896 15.173C18.2845 14.8762 18.4961 14.5071 18.6034 14.1027C19 12.6112 19 9.5 19 9.5C19 9.5 19 6.38875 18.6026 4.89725ZM7.55646 12.3247V6.67533L12.5226 9.5L7.55646 12.3247Z" fill="white"/>
</svg>
