<svg width="22" height="16" viewBox="0 0 22 16" fill="none" xmlns="http://www.w3.org/2000/svg">
<path fill-rule="evenodd" clip-rule="evenodd" d="M20.9524 0.333333L10.9996 8.38095L1.04762 0.333333C1.45439 0.126712 1.91446 0 2.41119 0H19.5879C20.084 0 20.544 0.126712 20.9524 0.333333ZM21.6454 14.6667C21.8637 14.278 22 13.8362 22 13.3597V2.49104C22 1.95904 21.8382 1.46673 21.5697 1.04762L14.6667 6.98743L21.6454 14.6667ZM13.7348 7.33343L11.4642 9.29129C11.3314 9.40523 11.166 9.46213 11 9.46213C10.8339 9.46213 10.6686 9.40523 10.5358 9.29129L8.26466 7.33333L1.04762 15.2869C1.48021 15.5542 1.98718 15.7143 2.53546 15.7143H19.4645C20.0127 15.7143 20.5199 15.5542 20.9524 15.2869L13.7348 7.33343ZM0 2.49108C0 1.95903 0.161908 1.46672 0.430419 1.04762L7.33333 6.98614L0.35484 14.6667C0.135668 14.278 0 13.8362 0 13.3597V2.49108Z" fill="white"/>
</svg>
