<svg width="22" height="19" viewBox="0 0 22 19" fill="none" xmlns="http://www.w3.org/2000/svg">
<path fill-rule="evenodd" clip-rule="evenodd" d="M5.45783 10.9045L0.388585 9.04193C-0.126289 8.85199 -0.130762 8.1364 0.382645 7.94147L21.187 0.0404622C21.628 -0.127462 22.0831 0.25293 21.987 0.708909L18.2536 18.3886C18.1656 18.8061 17.6684 18.9954 17.3175 18.7443L12.221 15.1016C11.9115 14.8804 11.4896 14.8922 11.1934 15.1298L8.3677 17.3976C8.03968 17.6616 7.54549 17.5145 7.41994 17.1166L5.45783 10.9045ZM17.011 3.90591L7.10375 9.91298C6.72403 10.1437 6.54524 10.5951 6.66793 11.0178L7.73911 14.7231C7.81516 14.9857 8.20229 14.9588 8.23917 14.6875L8.51769 12.6555C8.5702 12.2729 8.75559 11.9205 9.04298 11.6571L17.2193 4.17491C17.3722 4.03529 17.189 3.79827 17.011 3.90591Z" fill="white"/>
</svg>
