<svg width="22" height="22" viewBox="0 0 22 22" fill="none" xmlns="http://www.w3.org/2000/svg">
<path d="M21.5398 5.67043C21.4155 5.20226 21.1704 4.77497 20.8291 4.43134C20.4877 4.0877 20.062 3.83979 19.5947 3.71243C17.8796 3.24951 11 3.24951 11 3.24951C11 3.24951 4.12042 3.24951 2.40442 3.71243C1.93729 3.84002 1.51185 4.08802 1.17065 4.43163C0.829456 4.77524 0.584459 5.20241 0.460167 5.67043C0 7.39743 0 10.9999 0 10.9999C0 10.9999 0 14.6024 0.460167 16.3294C0.584454 16.7976 0.829561 17.2249 1.17094 17.5685C1.51232 17.9122 1.938 18.1601 2.40533 18.2874C4.12042 18.7503 11 18.7503 11 18.7503C11 18.7503 17.8796 18.7503 19.5956 18.2874C20.063 18.1602 20.4887 17.9123 20.8301 17.5686C21.1715 17.225 21.4165 16.7976 21.5408 16.3294C22 14.6024 22 10.9999 22 10.9999C22 10.9999 22 7.39743 21.5398 5.67043ZM8.74958 14.2706V7.72926L14.4998 10.9999L8.74958 14.2706Z" fill="white"/>
</svg>
