<svg width="1108" height="720" viewBox="0 0 1108 720" fill="none" xmlns="http://www.w3.org/2000/svg">
<path fill-rule="evenodd" clip-rule="evenodd" d="M1108 0H0V720H1108V0ZM671.803 376.684C679.728 352.398 688.434 325.718 716 311.5C716 311.5 725 363.5 769.5 332.5C790.148 318.116 793.572 301.041 796.905 284.421C800.756 265.223 804.484 246.632 834.5 233.5C812.5 284 937 296 909.5 207C950.32 251.034 937.213 274.2 925.166 295.491C918.473 307.32 912.107 318.571 915.5 332.5C925 371.5 970.5 346 970.5 346C980.787 384.29 969.844 405.433 960.724 423.056C953.886 436.269 948.072 447.502 953 462.5C964.5 497.5 996.5 475 996.5 475C996.5 475 997.5 666 777.499 666C557.498 666 542.5 506 622.5 411C622.5 411 621 442.5 649 420C660.75 410.558 666.073 394.247 671.803 376.684Z" fill="white"/>
</svg>
